<?xml version="1.0" standalone="no"?>
<svg xmlns:xlink="http://www.w3.org/1999/xlink" id="wave" style="transform:rotate(0deg); transition: 0.3s" viewBox="0 0 1440 160" version="1.1" xmlns="http://www.w3.org/2000/svg"><defs><linearGradient id="sw-gradient-0" x1="0" x2="0" y1="1" y2="0"><stop stop-color="rgba(22, 160, 133, 1)" offset="0%"/><stop stop-color="rgba(22.623, 166.526, 138.371, 1)" offset="100%"/></linearGradient></defs><path style="transform:translate(0, 0px); opacity:1" fill="url(#sw-gradient-0)" d="M0,80L40,66.7C80,53,160,27,240,37.3C320,48,400,96,480,114.7C560,133,640,123,720,109.3C800,96,880,80,960,80C1040,80,1120,96,1200,90.7C1280,85,1360,59,1440,64C1520,69,1600,107,1680,122.7C1760,139,1840,133,1920,133.3C2000,133,2080,139,2160,138.7C2240,139,2320,133,2400,130.7C2480,128,2560,128,2640,128C2720,128,2800,128,2880,112C2960,96,3040,64,3120,58.7C3200,53,3280,75,3360,69.3C3440,64,3520,32,3600,24C3680,16,3760,32,3840,45.3C3920,59,4000,69,4080,77.3C4160,85,4240,91,4320,101.3C4400,112,4480,128,4560,117.3C4640,107,4720,69,4800,61.3C4880,53,4960,75,5040,72C5120,69,5200,43,5280,34.7C5360,27,5440,37,5520,40C5600,43,5680,37,5720,34.7L5760,32L5760,160L5720,160C5680,160,5600,160,5520,160C5440,160,5360,160,5280,160C5200,160,5120,160,5040,160C4960,160,4880,160,4800,160C4720,160,4640,160,4560,160C4480,160,4400,160,4320,160C4240,160,4160,160,4080,160C4000,160,3920,160,3840,160C3760,160,3680,160,3600,160C3520,160,3440,160,3360,160C3280,160,3200,160,3120,160C3040,160,2960,160,2880,160C2800,160,2720,160,2640,160C2560,160,2480,160,2400,160C2320,160,2240,160,2160,160C2080,160,2000,160,1920,160C1840,160,1760,160,1680,160C1600,160,1520,160,1440,160C1360,160,1280,160,1200,160C1120,160,1040,160,960,160C880,160,800,160,720,160C640,160,560,160,480,160C400,160,320,160,240,160C160,160,80,160,40,160L0,160Z"/><defs><linearGradient id="sw-gradient-1" x1="0" x2="0" y1="1" y2="0"><stop stop-color="rgba(38.818, 134.651, 115.901, 1)" offset="0%"/><stop stop-color="rgba(42.384, 141.481, 122.092, 1)" offset="100%"/></linearGradient></defs><path style="transform:translate(0, 50px); opacity:0.9" fill="url(#sw-gradient-1)" d="M0,0L40,5.3C80,11,160,21,240,32C320,43,400,53,480,56C560,59,640,53,720,64C800,75,880,101,960,96C1040,91,1120,53,1200,56C1280,59,1360,101,1440,117.3C1520,133,1600,123,1680,117.3C1760,112,1840,112,1920,106.7C2000,101,2080,91,2160,96C2240,101,2320,123,2400,128C2480,133,2560,123,2640,112C2720,101,2800,91,2880,77.3C2960,64,3040,48,3120,58.7C3200,69,3280,107,3360,122.7C3440,139,3520,133,3600,109.3C3680,85,3760,43,3840,42.7C3920,43,4000,85,4080,96C4160,107,4240,85,4320,80C4400,75,4480,85,4560,96C4640,107,4720,117,4800,109.3C4880,101,4960,75,5040,56C5120,37,5200,27,5280,40C5360,53,5440,91,5520,98.7C5600,107,5680,85,5720,74.7L5760,64L5760,160L5720,160C5680,160,5600,160,5520,160C5440,160,5360,160,5280,160C5200,160,5120,160,5040,160C4960,160,4880,160,4800,160C4720,160,4640,160,4560,160C4480,160,4400,160,4320,160C4240,160,4160,160,4080,160C4000,160,3920,160,3840,160C3760,160,3680,160,3600,160C3520,160,3440,160,3360,160C3280,160,3200,160,3120,160C3040,160,2960,160,2880,160C2800,160,2720,160,2640,160C2560,160,2480,160,2400,160C2320,160,2240,160,2160,160C2080,160,2000,160,1920,160C1840,160,1760,160,1680,160C1600,160,1520,160,1440,160C1360,160,1280,160,1200,160C1120,160,1040,160,960,160C880,160,800,160,720,160C640,160,560,160,480,160C400,160,320,160,240,160C160,160,80,160,40,160L0,160Z"/></svg>